<svg width="40" height="40" viewBox="0 0 40 40" fill="none" xmlns="http://www.w3.org/2000/svg">
<path d="M37.2093 20.4651H32.725H32.723C32.6892 20.4651 32.6556 20.4651 32.6221 20.4651C32.5729 20.4651 32.5239 20.465 32.4753 20.4649C31.0381 20.4634 29.8997 20.4623 28.8759 20.9332C27.852 21.404 27.1122 22.269 26.1782 23.3609L26.1779 23.3613C26.1524 23.391 26.1269 23.4209 26.1012 23.4509C26.0953 23.4578 26.0894 23.4647 26.0834 23.4717C26.0609 23.498 26.0383 23.5245 26.0154 23.5511L24.8889 24.8653C23.71 26.2407 23.379 26.581 22.9814 26.7639C22.5836 26.947 22.11 26.9767 20.2982 26.9767H19.7018C17.89 26.9767 17.4164 26.947 17.0186 26.7639C16.621 26.581 16.29 26.2407 15.111 24.8653L13.9846 23.5511C13.9298 23.4871 13.8756 23.4238 13.8222 23.3613L13.8215 23.3605C12.8876 22.2688 12.1479 21.404 11.1242 20.9332C10.1002 20.4623 8.96195 20.4634 7.52473 20.4649C7.44311 20.4651 7.36054 20.4651 7.27696 20.4651H7.2749H2.79072L2.7907 20C2.7907 15.5754 2.79366 12.3973 3.11883 9.97875C3.4386 7.60032 4.04677 6.16642 5.10661 5.10661C6.16642 4.04677 7.60032 3.4386 9.97875 3.11883C12.3973 2.79366 15.5754 2.7907 20 2.7907C24.4246 2.7907 27.6026 2.79366 30.0212 3.11883C32.3996 3.4386 33.8335 4.04677 34.8934 5.10661C35.9533 6.16642 36.5615 7.60032 36.8811 9.97875C37.2063 12.3973 37.2093 15.5754 37.2093 20V20.4651Z" fill="white"/>
<path fill-rule="evenodd" clip-rule="evenodd" d="M32.4753 20.4649C32.5239 20.465 32.5729 20.4651 32.6221 20.4651C32.6556 20.4651 32.6892 20.4651 32.723 20.4651C32.6394 20.4651 32.5569 20.4651 32.4753 20.4649ZM26.0834 23.4717C26.0894 23.4647 26.0953 23.4578 26.1012 23.4509C26.1269 23.4209 26.1524 23.391 26.1779 23.3613C26.1465 23.3978 26.1151 23.4346 26.0834 23.4717Z" fill="white"/>
<path d="M2.79721 23.2558C2.81477 26.0513 2.87959 28.2419 3.11883 30.0212C3.4386 32.3996 4.04677 33.8335 5.10661 34.8934C6.16642 35.9533 7.60032 36.5615 9.97875 36.8811C12.3973 37.2063 15.5754 37.2093 20 37.2093C24.4246 37.2093 27.6026 37.2063 30.0212 36.8811C32.3996 36.5615 33.8335 35.9533 34.8934 34.8934C35.9533 33.8335 36.5615 32.3996 36.8811 30.0212C37.1204 28.2419 37.1853 26.0513 37.2028 23.2558H32.725C30.9133 23.2558 30.4396 23.2856 30.0419 23.4687C29.6443 23.6515 29.3133 23.9918 28.1343 25.3673L27.0078 26.6815C26.9529 26.7455 26.899 26.8087 26.8454 26.8713L26.845 26.8717C25.9111 27.9636 25.1712 28.8285 24.1473 29.2993C23.1235 29.7702 21.9851 29.7691 20.5479 29.7676C20.467 29.7674 20.3852 29.7674 20.3023 29.7674H20.2982H19.7018C19.6175 29.7674 19.5343 29.7674 19.4521 29.7676C18.0149 29.7691 16.8765 29.7702 15.8526 29.2993C14.8289 28.8286 14.0891 27.9638 13.1553 26.8721L13.1546 26.8713C13.1011 26.8087 13.047 26.7455 12.9921 26.6815L11.8657 25.3673C10.6867 23.9918 10.3558 23.6515 9.95805 23.4687C9.56035 23.2856 9.08664 23.2558 7.2749 23.2558H2.79721Z" fill="white"/>
</svg>
