<svg width="33" height="36" viewBox="0 0 33 36" fill="none" xmlns="http://www.w3.org/2000/svg">
<path d="M25.3048 15.2835C25.7307 16.1893 26.2648 16.8858 26.9071 17.3658C27.5459 17.8457 28.1486 18.138 28.7079 18.2463C29.2673 18.3546 29.8555 18.6613 30.469 19.1665C31.0825 19.6718 31.548 20.408 31.8692 21.3679C32.4575 23.0207 31.4686 25.1716 28.9064 27.8132C26.3441 30.4549 22.9844 32.548 18.8198 34.0962C14.4423 35.6443 10.4835 36.2434 6.93241 35.8969C3.38496 35.5469 1.31711 34.5473 0.728879 32.8944C0.194777 31.4545 0.353564 29.9713 1.20885 28.452C2.06414 26.9327 2.30232 25.4495 1.93061 24.0096C0.436566 18.8851 -0.191365 14.8829 0.0504244 12.0031C0.292214 9.12325 1.79708 6.56101 4.57225 4.31633C5.26514 3.7281 5.65128 3.04964 5.73429 2.27375C5.81368 1.50147 6.19982 0.97819 6.89632 0.711139C7.53508 0.49822 8.14857 0.657007 8.73681 1.19111C9.32504 1.72521 10.0721 1.96339 10.9779 1.91287C14.5001 1.85874 17.1417 2.73929 18.9028 4.55451C20.6603 6.37335 22.7967 9.94606 25.3048 15.2835ZM17.8599 31.4545C20.2092 30.5992 22.3276 29.4661 24.2222 28.0514C26.1168 26.6368 27.4521 25.4242 28.2243 24.4101C28.9966 23.3961 29.3322 22.7284 29.224 22.4072C29.0111 21.819 28.3579 21.3787 27.2644 21.0864C26.1709 20.7941 24.5145 20.7797 22.3023 21.0467C20.0901 21.3138 17.5928 21.9525 14.8176 22.9666C12.0966 23.9807 9.78697 25.1427 7.89235 26.4491C5.99773 27.7555 4.74547 28.8778 4.13198 29.8125C3.51848 30.7472 3.29113 31.4545 3.44992 31.9345C3.55818 32.2557 4.2222 32.548 5.4528 32.815C6.67979 33.0821 8.46615 33.1362 10.8155 32.9738C13.1648 32.8114 15.5105 32.3062 17.8599 31.4545ZM15.377 24.4895C15.5899 24.4354 15.8714 24.3416 16.2179 24.208C16.5643 24.0745 16.7917 23.9807 16.8999 23.9266L16.9793 24.006C17.3546 25.0742 17.1273 26.1821 16.2972 27.326C15.4708 28.4736 14.2835 29.3145 12.7354 29.8486C10.1731 30.8085 8.14497 30.6209 6.65092 29.2892C8.7332 27.4776 11.6419 25.8753 15.377 24.4895Z" fill="white"/>
</svg>
