<svg width="256" height="256" viewBox="0 0 256 256" fill="none" xmlns="http://www.w3.org/2000/svg">
<path d="M77.3605 119.905C77.2989 141.198 94.8544 148.364 113.026 144.524C134.134 140.076 151.039 129.227 163.742 111.98C169.737 103.849 170.559 91.6933 157.602 89.7837C147.295 88.2643 139.41 90.9336 130.499 95.4508C124.935 98.2843 119.083 91.5906 121.465 86.1083C122.19 84.4383 123.888 82.7067 126.557 80.9135C141.115 71.1193 165.795 65.7397 180.722 76.7453C201.892 92.3298 193.637 120.973 180.23 138.159C167.376 154.627 150.799 166.495 130.499 173.763C112.369 180.252 87.9964 180.929 72.5353 170.006C50.9349 154.75 48.6763 129.823 58.8605 106.888C64.9108 93.2811 74.7323 80.3523 88.325 68.101C116.557 42.6607 153.373 25.0436 191.523 26.5425C237.947 28.3904 264.167 62.6598 253.716 108.161C247.926 133.402 235.736 154.969 217.147 172.86C182.447 206.267 134.647 230.352 85.6968 233.206C67.8333 234.253 49.4359 232.241 33.2972 224.664C9.02753 213.248 -1.97804 189.163 1.34826 162.758C3.25096 147.673 9.45185 132.944 19.9509 118.571C20.086 118.385 20.2592 118.232 20.458 118.122C20.6568 118.012 20.8763 117.948 21.1008 117.934C21.9768 117.88 22.6134 118.242 23.0103 119.023C23.2567 119.502 23.3183 120.001 23.1951 120.521C17.9593 142.204 11.8405 167.193 27.9382 186.062C65.2453 229.848 148.225 187.669 180.722 162.758C204.335 144.668 238.317 96.4364 221.254 65.1648C211.378 47.0753 190.681 41.5314 171.051 43.5026C147.042 45.8981 125.517 55.2269 106.476 71.4889C92.4726 83.4596 77.4016 101.57 77.3605 119.905Z" fill="url(#paint0_linear_744_44)"/>
<defs>
<linearGradient id="paint0_linear_744_44" x1="135.209" y1="14.4421" x2="135.209" y2="221.452" gradientUnits="userSpaceOnUse">
<stop stop-color="#2CC1F0"/>
<stop offset="1" stop-color="#2564C2"/>
</linearGradient>
</defs>
</svg>
